<mxfile host="Electron" agent="Mozilla/5.0 (Windows NT 10.0; Win64; x64) AppleWebKit/537.36 (KHTML, like Gecko) draw.io/24.7.17 Chrome/128.0.6613.36 Electron/32.0.1 Safari/537.36" version="24.7.17">
  <diagram name="페이지-1" id="hkT9jMrc2nKXEr8T4aD-">
    <mxGraphModel dx="1434" dy="836" grid="1" gridSize="10" guides="1" tooltips="1" connect="1" arrows="1" fold="1" page="1" pageScale="1" pageWidth="1169" pageHeight="827" math="0" shadow="0">
      <root>
        <mxCell id="0" />
        <mxCell id="1" parent="0" />
        <mxCell id="lt3kHcR5F5TgHOiNlzPF-4" value="" style="sketch=0;pointerEvents=1;shadow=0;dashed=0;html=1;strokeColor=none;fillColor=#505050;labelPosition=center;verticalLabelPosition=bottom;verticalAlign=top;outlineConnect=0;align=center;shape=mxgraph.office.concepts.folder;" vertex="1" parent="1">
          <mxGeometry x="115" y="615" width="90" height="66" as="geometry" />
        </mxCell>
        <mxCell id="lt3kHcR5F5TgHOiNlzPF-5" value="" style="rounded=0;whiteSpace=wrap;html=1;fillColor=#dae8fc;strokeColor=#6c8ebf;" vertex="1" parent="1">
          <mxGeometry x="60" y="140" width="1040" height="400" as="geometry" />
        </mxCell>
        <mxCell id="lt3kHcR5F5TgHOiNlzPF-6" value="" style="shape=cylinder3;whiteSpace=wrap;html=1;boundedLbl=1;backgroundOutline=1;size=15;fillColor=#dae8fc;strokeColor=#6c8ebf;" vertex="1" parent="1">
          <mxGeometry x="891" y="617.5" width="60" height="61" as="geometry" />
        </mxCell>
        <mxCell id="lt3kHcR5F5TgHOiNlzPF-7" value="File&lt;div&gt;Watcher&lt;/div&gt;" style="rounded=1;whiteSpace=wrap;html=1;fillColor=#fff2cc;strokeColor=#d6b656;" vertex="1" parent="1">
          <mxGeometry x="100" y="310" width="120" height="60" as="geometry" />
        </mxCell>
        <mxCell id="lt3kHcR5F5TgHOiNlzPF-8" value="&lt;b&gt;&lt;font style=&quot;font-size: 19px;&quot;&gt;Spring Batch Service&lt;/font&gt;&lt;/b&gt;" style="text;html=1;align=center;verticalAlign=middle;whiteSpace=wrap;rounded=0;" vertex="1" parent="1">
          <mxGeometry x="450" y="110" width="260" height="30" as="geometry" />
        </mxCell>
        <mxCell id="lt3kHcR5F5TgHOiNlzPF-9" value="" style="endArrow=classic;startArrow=classic;html=1;rounded=0;entryX=0.5;entryY=1;entryDx=0;entryDy=0;" edge="1" parent="1" source="lt3kHcR5F5TgHOiNlzPF-4" target="lt3kHcR5F5TgHOiNlzPF-7">
          <mxGeometry width="50" height="50" relative="1" as="geometry">
            <mxPoint x="560" y="450" as="sourcePoint" />
            <mxPoint x="610" y="400" as="targetPoint" />
          </mxGeometry>
        </mxCell>
        <mxCell id="lt3kHcR5F5TgHOiNlzPF-10" value="detecting file" style="text;html=1;align=center;verticalAlign=middle;whiteSpace=wrap;rounded=0;" vertex="1" parent="1">
          <mxGeometry x="90" y="480" width="70" height="30" as="geometry" />
        </mxCell>
        <mxCell id="lt3kHcR5F5TgHOiNlzPF-11" value="CSV&lt;div&gt;Splitter&lt;/div&gt;" style="rounded=1;whiteSpace=wrap;html=1;fillColor=#fff2cc;strokeColor=#d6b656;" vertex="1" parent="1">
          <mxGeometry x="330" y="310" width="120" height="60" as="geometry" />
        </mxCell>
        <mxCell id="lt3kHcR5F5TgHOiNlzPF-12" value="" style="endArrow=classic;html=1;rounded=0;exitX=1;exitY=0.5;exitDx=0;exitDy=0;entryX=0;entryY=0.5;entryDx=0;entryDy=0;" edge="1" parent="1" source="lt3kHcR5F5TgHOiNlzPF-7" target="lt3kHcR5F5TgHOiNlzPF-11">
          <mxGeometry width="50" height="50" relative="1" as="geometry">
            <mxPoint x="560" y="450" as="sourcePoint" />
            <mxPoint x="610" y="400" as="targetPoint" />
          </mxGeometry>
        </mxCell>
        <mxCell id="lt3kHcR5F5TgHOiNlzPF-13" value="detected file" style="text;html=1;align=center;verticalAlign=middle;whiteSpace=wrap;rounded=0;" vertex="1" parent="1">
          <mxGeometry x="231" y="320" width="80" height="30" as="geometry" />
        </mxCell>
        <mxCell id="lt3kHcR5F5TgHOiNlzPF-14" value="" style="sketch=0;pointerEvents=1;shadow=0;dashed=0;html=1;strokeColor=none;fillColor=#505050;labelPosition=center;verticalLabelPosition=bottom;verticalAlign=top;outlineConnect=0;align=center;shape=mxgraph.office.concepts.folder;" vertex="1" parent="1">
          <mxGeometry x="345" y="615" width="90" height="66" as="geometry" />
        </mxCell>
        <mxCell id="lt3kHcR5F5TgHOiNlzPF-15" value="" style="endArrow=classic;html=1;rounded=0;exitX=0.5;exitY=1;exitDx=0;exitDy=0;" edge="1" parent="1" source="lt3kHcR5F5TgHOiNlzPF-11" target="lt3kHcR5F5TgHOiNlzPF-14">
          <mxGeometry width="50" height="50" relative="1" as="geometry">
            <mxPoint x="560" y="450" as="sourcePoint" />
            <mxPoint x="610" y="400" as="targetPoint" />
          </mxGeometry>
        </mxCell>
        <mxCell id="lt3kHcR5F5TgHOiNlzPF-16" value="splitted files" style="text;html=1;align=center;verticalAlign=middle;whiteSpace=wrap;rounded=0;" vertex="1" parent="1">
          <mxGeometry x="316" y="480" width="80" height="30" as="geometry" />
        </mxCell>
        <mxCell id="lt3kHcR5F5TgHOiNlzPF-17" value="CSV&lt;div&gt;Batch Service&lt;/div&gt;" style="rounded=1;whiteSpace=wrap;html=1;fillColor=#fff2cc;strokeColor=#d6b656;" vertex="1" parent="1">
          <mxGeometry x="540" y="310" width="120" height="60" as="geometry" />
        </mxCell>
        <mxCell id="lt3kHcR5F5TgHOiNlzPF-18" value="" style="endArrow=classic;html=1;rounded=0;exitX=1;exitY=0.5;exitDx=0;exitDy=0;entryX=0;entryY=0.5;entryDx=0;entryDy=0;" edge="1" parent="1" source="lt3kHcR5F5TgHOiNlzPF-11" target="lt3kHcR5F5TgHOiNlzPF-17">
          <mxGeometry width="50" height="50" relative="1" as="geometry">
            <mxPoint x="560" y="450" as="sourcePoint" />
            <mxPoint x="610" y="400" as="targetPoint" />
          </mxGeometry>
        </mxCell>
        <mxCell id="lt3kHcR5F5TgHOiNlzPF-20" value="file list" style="text;html=1;align=center;verticalAlign=middle;whiteSpace=wrap;rounded=0;" vertex="1" parent="1">
          <mxGeometry x="453" y="320" width="80" height="30" as="geometry" />
        </mxCell>
        <mxCell id="lt3kHcR5F5TgHOiNlzPF-25" value="" style="rounded=1;whiteSpace=wrap;html=1;fillColor=#d5e8d4;strokeColor=#82b366;" vertex="1" parent="1">
          <mxGeometry x="753" y="275" width="317" height="130" as="geometry" />
        </mxCell>
        <mxCell id="lt3kHcR5F5TgHOiNlzPF-26" value="JOB&lt;div&gt;Launcher&lt;br&gt;&lt;/div&gt;" style="ellipse;whiteSpace=wrap;html=1;aspect=fixed;fillColor=#ffe6cc;strokeColor=#d79b00;" vertex="1" parent="1">
          <mxGeometry x="759" y="315" width="60" height="60" as="geometry" />
        </mxCell>
        <mxCell id="lt3kHcR5F5TgHOiNlzPF-27" value="JOB&lt;div&gt;Launcher&lt;br&gt;&lt;/div&gt;" style="ellipse;whiteSpace=wrap;html=1;aspect=fixed;fillColor=#ffe6cc;strokeColor=#d79b00;" vertex="1" parent="1">
          <mxGeometry x="793" y="315" width="60" height="60" as="geometry" />
        </mxCell>
        <mxCell id="lt3kHcR5F5TgHOiNlzPF-22" value="&lt;div&gt;JOB&lt;/div&gt;&lt;div&gt;Launcher&lt;/div&gt;" style="ellipse;whiteSpace=wrap;html=1;aspect=fixed;fillColor=#ffe6cc;strokeColor=#d79b00;" vertex="1" parent="1">
          <mxGeometry x="833" y="315" width="60" height="60" as="geometry" />
        </mxCell>
        <mxCell id="lt3kHcR5F5TgHOiNlzPF-30" value="........." style="text;html=1;align=center;verticalAlign=middle;whiteSpace=wrap;rounded=0;" vertex="1" parent="1">
          <mxGeometry x="960" y="330" width="80" height="30" as="geometry" />
        </mxCell>
        <mxCell id="lt3kHcR5F5TgHOiNlzPF-31" value="Thread Pool" style="text;html=1;align=center;verticalAlign=middle;whiteSpace=wrap;rounded=0;" vertex="1" parent="1">
          <mxGeometry x="813" y="255" width="80" height="30" as="geometry" />
        </mxCell>
        <mxCell id="lt3kHcR5F5TgHOiNlzPF-32" value="" style="endArrow=classic;html=1;rounded=0;exitX=1;exitY=0.5;exitDx=0;exitDy=0;entryX=0;entryY=0.5;entryDx=0;entryDy=0;" edge="1" parent="1" source="lt3kHcR5F5TgHOiNlzPF-17" target="lt3kHcR5F5TgHOiNlzPF-25">
          <mxGeometry width="50" height="50" relative="1" as="geometry">
            <mxPoint x="560" y="450" as="sourcePoint" />
            <mxPoint x="830" y="340" as="targetPoint" />
          </mxGeometry>
        </mxCell>
        <mxCell id="lt3kHcR5F5TgHOiNlzPF-33" value="invoke" style="text;html=1;align=center;verticalAlign=middle;whiteSpace=wrap;rounded=0;" vertex="1" parent="1">
          <mxGeometry x="650" y="320" width="80" height="30" as="geometry" />
        </mxCell>
        <mxCell id="lt3kHcR5F5TgHOiNlzPF-36" value="&lt;div&gt;JOB&lt;/div&gt;&lt;div&gt;Launcher&lt;/div&gt;" style="ellipse;whiteSpace=wrap;html=1;aspect=fixed;fillColor=#ffe6cc;strokeColor=#d79b00;" vertex="1" parent="1">
          <mxGeometry x="870" y="315" width="60" height="60" as="geometry" />
        </mxCell>
        <mxCell id="lt3kHcR5F5TgHOiNlzPF-37" value="&lt;div&gt;JOB&lt;/div&gt;&lt;div&gt;Launcher&lt;/div&gt;" style="ellipse;whiteSpace=wrap;html=1;aspect=fixed;fillColor=#ffe6cc;strokeColor=#d79b00;" vertex="1" parent="1">
          <mxGeometry x="910" y="315" width="60" height="60" as="geometry" />
        </mxCell>
        <mxCell id="lt3kHcR5F5TgHOiNlzPF-38" value="" style="sketch=0;pointerEvents=1;shadow=0;dashed=0;html=1;strokeColor=none;fillColor=#505050;labelPosition=center;verticalLabelPosition=bottom;verticalAlign=top;outlineConnect=0;align=center;shape=mxgraph.office.concepts.folder;" vertex="1" parent="1">
          <mxGeometry x="762" y="615" width="90" height="66" as="geometry" />
        </mxCell>
        <mxCell id="lt3kHcR5F5TgHOiNlzPF-39" value="" style="endArrow=classic;html=1;rounded=0;" edge="1" parent="1" target="lt3kHcR5F5TgHOiNlzPF-38">
          <mxGeometry width="50" height="50" relative="1" as="geometry">
            <mxPoint x="806" y="405" as="sourcePoint" />
            <mxPoint x="806.8613445378151" y="610" as="targetPoint" />
          </mxGeometry>
        </mxCell>
        <mxCell id="lt3kHcR5F5TgHOiNlzPF-40" value="" style="sketch=0;pointerEvents=1;shadow=0;dashed=0;html=1;strokeColor=none;fillColor=#505050;labelPosition=center;verticalLabelPosition=bottom;verticalAlign=top;outlineConnect=0;align=center;shape=mxgraph.office.concepts.folder;" vertex="1" parent="1">
          <mxGeometry x="980" y="615" width="90" height="66" as="geometry" />
        </mxCell>
        <mxCell id="lt3kHcR5F5TgHOiNlzPF-41" value="" style="endArrow=classic;html=1;rounded=0;" edge="1" parent="1">
          <mxGeometry width="50" height="50" relative="1" as="geometry">
            <mxPoint x="1024.5" y="405" as="sourcePoint" />
            <mxPoint x="1025.5" y="615" as="targetPoint" />
          </mxGeometry>
        </mxCell>
        <mxCell id="lt3kHcR5F5TgHOiNlzPF-42" value="" style="endArrow=classic;html=1;rounded=0;exitX=0.53;exitY=1.008;exitDx=0;exitDy=0;entryX=0.5;entryY=0;entryDx=0;entryDy=0;entryPerimeter=0;exitPerimeter=0;" edge="1" parent="1" source="lt3kHcR5F5TgHOiNlzPF-25" target="lt3kHcR5F5TgHOiNlzPF-6">
          <mxGeometry width="50" height="50" relative="1" as="geometry">
            <mxPoint x="1034.5" y="415" as="sourcePoint" />
            <mxPoint x="1035.5" y="625" as="targetPoint" />
          </mxGeometry>
        </mxCell>
        <mxCell id="lt3kHcR5F5TgHOiNlzPF-43" value="allocated file" style="text;html=1;align=center;verticalAlign=middle;whiteSpace=wrap;rounded=0;" vertex="1" parent="1">
          <mxGeometry x="730" y="480" width="80" height="30" as="geometry" />
        </mxCell>
        <mxCell id="lt3kHcR5F5TgHOiNlzPF-44" value="&lt;b&gt;&lt;font style=&quot;font-size: 13px;&quot;&gt;receive&lt;/font&gt;&lt;/b&gt;" style="text;html=1;align=center;verticalAlign=middle;whiteSpace=wrap;rounded=0;" vertex="1" parent="1">
          <mxGeometry x="125" y="681" width="70" height="30" as="geometry" />
        </mxCell>
        <mxCell id="lt3kHcR5F5TgHOiNlzPF-45" value="&lt;span style=&quot;font-size: 13px;&quot;&gt;&lt;b&gt;ready&lt;/b&gt;&lt;/span&gt;" style="text;html=1;align=center;verticalAlign=middle;whiteSpace=wrap;rounded=0;" vertex="1" parent="1">
          <mxGeometry x="355" y="681" width="70" height="30" as="geometry" />
        </mxCell>
        <mxCell id="lt3kHcR5F5TgHOiNlzPF-46" value="&lt;span style=&quot;font-size: 13px;&quot;&gt;&lt;b&gt;process&lt;/b&gt;&lt;/span&gt;" style="text;html=1;align=center;verticalAlign=middle;whiteSpace=wrap;rounded=0;" vertex="1" parent="1">
          <mxGeometry x="772" y="681" width="70" height="30" as="geometry" />
        </mxCell>
        <mxCell id="lt3kHcR5F5TgHOiNlzPF-47" value="&lt;span style=&quot;font-size: 13px;&quot;&gt;&lt;b&gt;done/error&lt;/b&gt;&lt;/span&gt;" style="text;html=1;align=center;verticalAlign=middle;whiteSpace=wrap;rounded=0;" vertex="1" parent="1">
          <mxGeometry x="990" y="681" width="70" height="30" as="geometry" />
        </mxCell>
        <mxCell id="lt3kHcR5F5TgHOiNlzPF-48" value="complate/error" style="text;html=1;align=center;verticalAlign=middle;whiteSpace=wrap;rounded=0;" vertex="1" parent="1">
          <mxGeometry x="942" y="480" width="80" height="30" as="geometry" />
        </mxCell>
        <mxCell id="lt3kHcR5F5TgHOiNlzPF-49" value="insert" style="text;html=1;align=center;verticalAlign=middle;whiteSpace=wrap;rounded=0;" vertex="1" parent="1">
          <mxGeometry x="862" y="480" width="80" height="30" as="geometry" />
        </mxCell>
      </root>
    </mxGraphModel>
  </diagram>
</mxfile>
